<svg width="20" height="21" viewBox="0 0 20 21" fill="none" xmlns="http://www.w3.org/2000/svg">
  <path d="M11.0281 0.500488C12.1535 0.502348 12.7238 0.508308 13.2166 0.522978L13.4107 0.529318C13.6349 0.537288 13.8561 0.547288 14.1228 0.559788C15.1869 0.608958 15.9128 0.777288 16.5503 1.02479C17.2094 1.27896 17.7661 1.62229 18.3219 2.17813C18.8769 2.73396 19.2203 3.29229 19.4753 3.94979C19.7219 4.58646 19.8903 5.31313 19.9403 6.37729C19.9522 6.64396 19.9618 6.86516 19.9697 7.0894L19.976 7.28349C19.9906 7.77623 19.9973 8.34662 19.9994 9.47206L20.0002 10.2177C20.0003 10.3088 20.0003 10.4028 20.0003 10.4998L20.0002 10.7819L19.9996 11.5276C19.9977 12.653 19.9918 13.2234 19.9771 13.7161L19.9707 13.9102C19.9628 14.1345 19.9528 14.3557 19.9403 14.6223C19.8911 15.6865 19.7219 16.4123 19.4753 17.0498C19.2211 17.709 18.8769 18.2657 18.3219 18.8215C17.7661 19.3765 17.2069 19.7198 16.5503 19.9748C15.9128 20.2215 15.1869 20.3898 14.1228 20.4398C13.8561 20.4517 13.6349 20.4614 13.4107 20.4692L13.2166 20.4755C12.7238 20.4902 12.1535 20.4968 11.0281 20.499L10.2824 20.4998C10.1913 20.4998 10.0973 20.4998 10.0003 20.4998H9.7182L8.9725 20.4991C7.8471 20.4973 7.27672 20.4913 6.78397 20.4766L6.58989 20.4703C6.36564 20.4623 6.14444 20.4523 5.87778 20.4398C4.81361 20.3907 4.08861 20.2215 3.45028 19.9748C2.79194 19.7207 2.23444 19.3765 1.67861 18.8215C1.12278 18.2657 0.780277 17.7065 0.525277 17.0498C0.277777 16.4123 0.110277 15.6865 0.0602767 14.6223C0.0483967 14.3557 0.0387066 14.1345 0.0308566 13.9102L0.0245667 13.7161C0.00993665 13.2234 0.00326674 12.653 0.00110674 11.5276L0.000976562 9.47206C0.00283656 8.34662 0.00878657 7.77623 0.0234566 7.28349L0.0298066 7.0894C0.0377766 6.86516 0.0477767 6.64396 0.0602767 6.37729C0.109437 5.31229 0.277777 4.58729 0.525277 3.94979C0.779437 3.29146 1.12278 2.73396 1.67861 2.17813C2.23444 1.62229 2.79278 1.27979 3.45028 1.02479C4.08778 0.777288 4.81278 0.609788 5.87778 0.559788C6.14444 0.547918 6.36564 0.538228 6.58989 0.530378L6.78397 0.524088C7.27672 0.509448 7.8471 0.502778 8.9725 0.500618L11.0281 0.500488ZM10.0003 5.49979C7.23738 5.49979 5.00028 7.73932 5.00028 10.4998C5.00028 13.2627 7.23981 15.4998 10.0003 15.4998C12.7632 15.4998 15.0003 13.2603 15.0003 10.4998C15.0003 7.73689 12.7607 5.49979 10.0003 5.49979ZM10.0003 7.49979C11.6572 7.49979 13.0003 8.84246 13.0003 10.4998C13.0003 12.1567 11.6576 13.4998 10.0003 13.4998C8.3434 13.4998 7.00028 12.1572 7.00028 10.4998C7.00028 8.84286 8.3429 7.49979 10.0003 7.49979ZM15.2503 3.99979C14.561 3.99979 14.0003 4.5597 14.0003 5.24894C14.0003 5.93819 14.5602 6.49896 15.2503 6.49896C15.9395 6.49896 16.5003 5.93906 16.5003 5.24894C16.5003 4.5597 15.9386 3.99893 15.2503 3.99979Z" fill="#fffbf2" />
</svg>