<svg width="16" height="19" viewBox="0 0 16 19" fill="none" xmlns="http://www.w3.org/2000/svg">
  <path d="M12.5999 3.32C11.9163 2.53962 11.5396 1.53743 11.5399 0.5H8.44991V12.9C8.42608 13.571 8.14278 14.2066 7.65968 14.6729C7.17657 15.1393 6.53136 15.3999 5.85991 15.4C4.43991 15.4 3.25991 14.24 3.25991 12.8C3.25991 11.08 4.91991 9.79 6.62991 10.32V7.16C3.17991 6.7 0.159912 9.38 0.159912 12.8C0.159912 16.13 2.91991 18.5 5.84991 18.5C8.98991 18.5 11.5399 15.95 11.5399 12.8V6.51C12.7929 7.40985 14.2973 7.89265 15.8399 7.89V4.8C15.8399 4.8 13.9599 4.89 12.5999 3.32Z" fill="#fffbf2" />
</svg>