<svg width="64" height="64" viewBox="0 0 64 64" fill="none" xmlns="http://www.w3.org/2000/svg">
  <path fill-rule="evenodd" clip-rule="evenodd" d="M7.05835 50.4267C6.80839 50.1766 6.66797 49.8376 6.66797 49.484C6.66797 49.1305 6.80839 48.7914 7.05835 48.5413L18.3704 37.2267C18.6204 36.9767 18.9595 36.8363 19.313 36.8363C19.6666 36.8363 20.0056 36.9767 20.2557 37.2267L25.9144 42.8854C26.1643 43.1354 26.3047 43.4745 26.3047 43.828C26.3047 44.1816 26.1643 44.5206 25.9144 44.7707L14.5997 56.0854C14.3496 56.3353 14.0106 56.4757 13.657 56.4757C13.3035 56.4757 12.9644 56.3353 12.7144 56.0854L7.05835 50.4267ZM9.88502 49.4853L13.6557 53.256L23.085 43.8267L19.3144 40.056L9.88502 49.4853Z" fill="#262522" />
  <path fill-rule="evenodd" clip-rule="evenodd" d="M18.3699 39.1093C18.1199 38.8593 17.9795 38.5202 17.9795 38.1667C17.9795 37.8131 18.1199 37.474 18.3699 37.224L45.2099 10.384C45.7105 9.88407 46.3347 9.52586 47.0189 9.34591C47.7032 9.16596 48.4229 9.1707 49.1046 9.35965C49.7864 9.5486 50.4059 9.91499 50.8999 10.4215C51.3939 10.9279 51.7447 11.5564 51.9165 12.2427L52.3485 13.9707C53.0741 16.8743 53.0354 19.9163 52.2363 22.8006C51.4372 25.6848 49.9049 28.3131 47.7885 30.4293L31.5699 46.6507C31.1984 47.0224 30.7573 47.3172 30.2719 47.5184C29.7864 47.7196 29.266 47.8231 28.7405 47.8231C28.215 47.8231 27.6947 47.7196 27.2092 47.5184C26.7237 47.3172 26.2827 47.0224 25.9112 46.6507L18.3699 39.1093ZM21.1965 38.1653L27.7965 44.7653C28.0466 45.0153 28.3857 45.1557 28.7392 45.1557C29.0928 45.1557 29.4318 45.0153 29.6819 44.7653L45.9032 28.544C47.6942 26.7532 48.991 24.5291 49.6672 22.0883C50.3434 19.6475 50.376 17.0731 49.7619 14.616L49.3299 12.8907C49.2727 12.6619 49.156 12.4524 48.9915 12.2835C48.827 12.1147 48.6206 11.9924 48.3935 11.9292C48.1663 11.8661 47.9265 11.8643 47.6984 11.924C47.4704 11.9838 47.2622 12.1029 47.0952 12.2693L21.1965 38.1653Z" fill="#262522" />
</svg>