<svg width="18" height="19" viewBox="0 0 18 19" fill="none" xmlns="http://www.w3.org/2000/svg">
  <path d="M12.4024 18.5V11.5344H14.7347L15.0838 8.8265H12.4024V7.09765C12.4024 6.31364 12.62 5.77934 13.7443 5.77934L15.1783 5.77867V3.35676C14.9302 3.32382 14.0791 3.25006 13.0888 3.25006C11.0213 3.25006 9.606 4.51198 9.606 6.82952V8.8265H7.2677V11.5344H9.606V18.5H1C0.44772 18.5 0 18.0523 0 17.5V1.5C0 0.94772 0.44772 0.5 1 0.5H17C17.5523 0.5 18 0.94772 18 1.5V17.5C18 18.0523 17.5523 18.5 17 18.5H12.4024Z" fill="#fffbf2" />
</svg>