<svg width="20" height="17" viewBox="0 0 20 17" fill="none" xmlns="http://www.w3.org/2000/svg">
  <path d="M10.2439 0.5C10.778 0.50294 12.1143 0.51586 13.5341 0.57273L14.0375 0.59468C15.467 0.66236 16.8953 0.77798 17.6037 0.9755C18.5486 1.24095 19.2913 2.0155 19.5423 2.99732C19.942 4.55641 19.992 7.5994 19.9982 8.3358L19.9991 8.4884V8.4991C19.9991 8.4991 19.9991 8.5028 19.9991 8.5099L19.9982 8.6625C19.992 9.3989 19.942 12.4419 19.5423 14.001C19.2878 14.9864 18.5451 15.761 17.6037 16.0228C16.8953 16.2203 15.467 16.3359 14.0375 16.4036L13.5341 16.4255C12.1143 16.4824 10.778 16.4953 10.2439 16.4983L10.0095 16.4991H9.9991C9.9991 16.4991 9.9956 16.4991 9.9887 16.4991L9.7545 16.4983C8.6241 16.4921 3.89772 16.441 2.39451 16.0228C1.4496 15.7573 0.70692 14.9828 0.45587 14.001C0.0561999 12.4419 0.00624 9.3989 0 8.6625V8.3358C0.00624 7.5994 0.0561999 4.55641 0.45587 2.99732C0.7104 2.01186 1.45308 1.23732 2.39451 0.9755C3.89772 0.55723 8.6241 0.50622 9.7545 0.5H10.2439ZM7.99911 4.99914V11.9991L13.9991 8.4991L7.99911 4.99914Z" fill="#fffbf2" />
</svg>